<svg width="151" height="148" version="1.1" xmlns="http://www.w3.org/2000/svg" desc="Created with imagetracer.js version 1.2.6" ><path fill="rgb(252,251,252)" stroke="rgb(252,251,252)" stroke-width="1" opacity="1" d="M 51.5 40 L 56 40.5 L 54 41.5 Q 54.8 44.8 59.5 44 Q 60.8 41.7 65.5 43 L 65.5 44 L 52.5 45 L 47.5 50 L 45 50 L 44.5 53 L 44 50.5 L 45 48 L 47.5 49 L 51.5 44 L 54 42.5 L 51.5 42 L 48.5 44 L 48.5 43 Q 50.8 43.8 50 41.5 L 51.5 40 Z " /><path fill="rgb(252,251,252)" stroke="rgb(252,251,252)" stroke-width="1" opacity="1" d="M 70.5 40 L 73 41.5 L 71.5 42 L 70.5 40 Z " /><path fill="rgb(252,251,252)" stroke="rgb(252,251,252)" stroke-width="1" opacity="1" d="M 78.5 40 L 80.5 41 L 82 40.5 L 78.5 45 L 77.5 43 Q 81.3 44 80 41 L 78.5 40 Z " /><path fill="rgb(252,251,252)" stroke="rgb(252,251,252)" stroke-width="1" opacity="1" d="M 87.5 40 L 88 43 L 103.5 42 L 107.5 40 L 107.5 41 L 106 41.5 L 109.5 42 L 109.5 40 L 112 41.5 L 109.5 44 L 105.5 42 L 104.5 43 L 88.5 44 L 86 43.5 L 87.5 40 Z " /><path fill="rgb(252,251,252)" stroke="rgb(252,251,252)" stroke-width="1" opacity="1" d="M 66.5 41 L 70 42.5 L 68.5 42 Q 65.5 42.5 66.5 41 Z " /><path fill="rgb(252,251,252)" stroke="rgb(252,251,252)" stroke-width="1" opacity="1" d="M 84.5 42 L 83.5 44 L 82 43.5 L 84.5 42 Z " /><path fill="rgb(252,251,252)" stroke="rgb(252,251,252)" stroke-width="1" opacity="1" d="M 71.5 43 L 72 45 L 70 44.5 L 71.5 43 Z " /><path fill="rgb(252,251,252)" stroke="rgb(252,251,252)" stroke-width="1" opacity="1" d="M 80.5 45 L 80.5 47 Q 83.1 46.2 82 49.5 L 84 49.5 L 89 58.5 L 88 63.5 L 90 62.5 L 90.5 61 L 92 64.5 L 90.5 67 L 90 65.5 L 90.5 64 L 87.5 66 L 87 63.5 L 85.5 54 Q 84.3 56.3 83 53.5 L 81.5 50 L 80 49.5 Q 82.3 48.2 79.5 47 L 77 46.5 L 80.5 45 Z " /><path fill="rgb(252,251,252)" stroke="rgb(252,251,252)" stroke-width="1" opacity="1" d="M 40.5 52 L 43 56 Q 39 54.6 41 61.5 L 40 61.5 L 41 54.5 L 40.5 52 Z " /><path fill="rgb(252,251,252)" stroke="rgb(252,251,252)" stroke-width="1" opacity="1" d="M 101.5 55 L 102 60.5 L 101 60.5 L 101.5 55 Z " /><path fill="rgb(252,251,252)" stroke="rgb(252,251,252)" stroke-width="1" opacity="1" d="M 59.5 56 L 63 56.5 L 61 57 Q 62.7 61.1 58.5 60 L 59.5 56 Z " /><path fill="rgb(252,251,252)" stroke="rgb(252,251,252)" stroke-width="1" opacity="1" d="M 66.5 56 Q 68.8 55.3 68 57.5 L 71.5 61 L 72.5 60 L 75 61.5 L 74.5 63 L 73.5 61 L 71.5 62 L 67 61 L 66.5 58 L 63.5 60 L 63 58 L 66.5 56 Z " /><path fill="rgb(252,251,252)" stroke="rgb(252,251,252)" stroke-width="1" opacity="1" d="M 104 56 L 111.5 56 L 112 58 L 104.5 58 L 104 56 Z " /><path fill="rgb(252,251,252)" stroke="rgb(252,251,252)" stroke-width="1" opacity="1" d="M 55.5 60 L 56 63 L 52.5 65 L 53 63.5 L 55.5 60 Z " /><path fill="rgb(252,251,252)" stroke="rgb(252,251,252)" stroke-width="1" opacity="1" d="M 61.5 61 L 62.5 63 Q 59.7 63.7 61.5 61 Z " /><path fill="rgb(252,251,252)" stroke="rgb(252,251,252)" stroke-width="1" opacity="1" d="M 57.5 62 L 58.5 64 Q 55.7 64.7 57.5 62 Z " /><path fill="rgb(252,251,252)" stroke="rgb(252,251,252)" stroke-width="1" opacity="1" d="M 68.5 63 L 71 63.5 L 68.5 64 L 68.5 63 Z " /><path fill="rgb(252,251,252)" stroke="rgb(252,251,252)" stroke-width="1" opacity="1" d="M 72 64 Q 74.7 62.9 74 65.5 L 75 65.5 L 75.5 64 L 76 73 L 74 73 Q 75.1 75.7 72.5 75 L 73.5 72 Q 71.3 72.8 72 70.5 L 73 66.5 L 72 64 Z " /><path fill="rgb(252,251,252)" stroke="rgb(252,251,252)" stroke-width="1" opacity="1" d="M 99.5 64 L 100 87.5 L 99 87.5 L 99.5 64 Z " /><path fill="rgb(252,251,252)" stroke="rgb(252,251,252)" stroke-width="1" opacity="1" d="M 40.5 66 L 41 69.5 L 40 69.5 L 40.5 66 Z " /><path fill="rgb(252,251,252)" stroke="rgb(252,251,252)" stroke-width="1" opacity="1" d="M 53 67 Q 56 66 55 69 Q 52 70 53 67 Z " /><path fill="rgb(252,251,252)" stroke="rgb(252,251,252)" stroke-width="1" opacity="1" d="M 90.5 69 L 92 72.5 L 91 72.5 L 90.5 69 Z " /><path fill="rgb(252,251,252)" stroke="rgb(252,251,252)" stroke-width="1" opacity="1" d="M 87.5 70 Q 89.8 69.3 89 71.5 L 89.5 73 L 87.5 70 Z " /><path fill="rgb(252,251,252)" stroke="rgb(252,251,252)" stroke-width="1" opacity="1" d="M 52.5 71 L 53 73 Q 55.7 71.9 55 74.5 L 55.5 76 L 52 72.5 L 52.5 71 Z " /><path fill="rgb(252,251,252)" stroke="rgb(252,251,252)" stroke-width="1" opacity="1" d="M 39 72 L 41 72.5 L 40 74.5 L 41 77.5 L 40 79.5 L 43 80.5 L 40.5 81 L 39 79.5 L 39 72 Z " /><path fill="rgb(252,251,252)" stroke="rgb(252,251,252)" stroke-width="1" opacity="1" d="M 66.5 72 L 67 73.5 L 64.5 75 L 66.5 72 Z " /><path fill="rgb(252,251,252)" stroke="rgb(252,251,252)" stroke-width="1" opacity="1" d="M 61 73 Q 64 72 63 75 Q 60 76 61 73 Z " /><path fill="rgb(252,251,252)" stroke="rgb(252,251,252)" stroke-width="1" opacity="1" d="M 57.5 75 L 62 78.5 Q 62.7 81.5 59 80 L 57.5 75 Z " /><path fill="rgb(252,251,252)" stroke="rgb(252,251,252)" stroke-width="1" opacity="1" d="M 69.5 75 L 71 75.5 L 69 76 Q 71.1 81.2 66.5 80 L 65 80.5 L 65.5 79 L 64 78.5 L 69.5 75 Z " /><path fill="rgb(252,251,252)" stroke="rgb(252,251,252)" stroke-width="1" opacity="1" d="M 85.5 80 L 89 82.5 L 87 83 Q 88.1 80.3 85.5 81 L 85.5 80 Z " /><path fill="rgb(252,251,252)" stroke="rgb(252,251,252)" stroke-width="1" opacity="1" d="M 42.5 83 L 47 85 L 49.5 89 L 51.5 88 L 52 91 L 56 91 L 56 95 L 57.5 95 L 57.5 96 L 52 94.5 L 54 93.5 L 51.5 92 L 51 94 L 48 92.5 L 49 89.5 L 46.5 87 L 42.5 83 Z " /><path fill="rgb(252,251,252)" stroke="rgb(252,251,252)" stroke-width="1" opacity="1" d="M 83 83 Q 85.7 81.9 85 84.5 L 84.5 87 L 83 86.5 Q 83.7 89.1 81 88 L 81 85 Q 84 86 83 83 Z " /><path fill="rgb(252,251,252)" stroke="rgb(252,251,252)" stroke-width="1" opacity="1" d="M 79.5 87 L 80 88.5 L 76.5 91 L 77.5 89 Q 80 89.7 79.5 87 Z " /><path fill="rgb(252,251,252)" stroke="rgb(252,251,252)" stroke-width="1" opacity="1" d="M 101.5 88 L 103 94.5 L 101 95.5 L 102 93.5 Q 99.7 92.1 101.5 88 Z " /><path fill="rgb(252,251,252)" stroke="rgb(252,251,252)" stroke-width="1" opacity="1" d="M 99.5 91 L 100 93.5 L 96 96 L 95 92.5 L 97.5 94 L 99 92.5 L 99.5 91 Z " /><path fill="rgb(252,251,252)" stroke="rgb(252,251,252)" stroke-width="1" opacity="1" d="M 62.5 92 Q 67 91 68 93.5 L 66.5 93 Q 61.5 94 62.5 92 Z " /><path fill="rgb(252,251,252)" stroke="rgb(252,251,252)" stroke-width="1" opacity="1" d="M 72.5 92 L 75 92.5 L 72.5 93 L 72.5 92 Z " /><path fill="rgb(252,251,252)" stroke="rgb(252,251,252)" stroke-width="1" opacity="1" d="M 91.5 93 L 92 95 L 95 95.5 L 92.5 96 L 91.5 93 Z " /><path fill="rgb(252,251,252)" stroke="rgb(252,251,252)" stroke-width="1" opacity="1" d="M 72 94 L 75 94.5 L 72.5 96 L 72 94 Z " /><path fill="rgb(252,251,252)" stroke="rgb(252,251,252)" stroke-width="1" opacity="1" d="M 36 144 Q 40.9 142.4 39 148 L 35 147.5 L 36 144 Z " /><path fill="rgb(252,251,252)" stroke="rgb(252,251,252)" stroke-width="1" opacity="1" d="M 48.5 144 L 50 148 Q 46.2 149.2 48.5 144 Z " /><path fill="rgb(252,251,252)" stroke="rgb(252,251,252)" stroke-width="1" opacity="1" d="M 65 144 Q 68.7 142.8 67 148 Q 63.3 149.2 65 144 Z " /><path fill="rgb(252,251,252)" stroke="rgb(252,251,252)" stroke-width="1" opacity="1" d="M 92 144 Q 95 142.8 94 146.5 L 94.5 148 Q 90.1 149.5 91 146.5 L 92 144 Z " /><path fill="rgb(252,251,252)" stroke="rgb(252,251,252)" stroke-width="1" opacity="1" d="M 96 144 L 101 146.5 L 101 148 L 96 148 L 96 144 Z " /><path fill="rgb(252,251,252)" stroke="rgb(252,251,252)" stroke-width="1" opacity="1" d="M 103 144 Q 109 142 107 148 L 104.5 147 L 102.5 148 L 103 146.5 L 103 144 Z " /><path fill="rgb(252,251,252)" stroke="rgb(252,251,252)" stroke-width="1" opacity="1" d="M 109 144 Q 112.7 142.8 111 148 Q 107.3 149.2 109 144 Z " /><path fill="rgb(252,251,252)" stroke="rgb(252,251,252)" stroke-width="1" opacity="1" d="M 112 144 L 118 144 L 118 148 L 112 148 L 112 144 Z " /><path fill="rgb(252,251,252)" stroke="rgb(252,251,252)" stroke-width="1" opacity="1" d="M 88.5 145 L 89 148 L 85 147.5 L 88.5 145 Z " /><path fill="rgb(252,251,252)" stroke="rgb(252,251,252)" stroke-width="1" opacity="1" d="M 69.5 146 L 70.5 148 Q 67.7 148.7 69.5 146 Z " /><path fill="rgb(254,254,254)" stroke="rgb(254,254,254)" stroke-width="1" opacity="1" d="M 54.5 41 Q 56.8 40.3 56 42.5 L 54.5 41 Z " /><path fill="rgb(254,254,254)" stroke="rgb(254,254,254)" stroke-width="1" opacity="1" d="M 61.5 41 L 59.5 44 L 61.5 41 Z " /><path fill="rgb(254,254,254)" stroke="rgb(254,254,254)" stroke-width="1" opacity="1" d="M 69.5 41 L 71 41.5 L 68.5 43 L 69.5 41 Z " /><path fill="rgb(254,254,254)" stroke="rgb(254,254,254)" stroke-width="1" opacity="1" d="M 73.5 41 Q 77.3 40.3 78 42.5 L 73.5 45 L 73 43 L 76 42.5 Q 72.7 42.6 73.5 41 Z " /><path fill="rgb(254,254,254)" stroke="rgb(254,254,254)" stroke-width="1" opacity="1" d="M 88.5 41 L 96 41.5 L 88.5 42 L 88.5 41 Z " /><path fill="rgb(254,254,254)" stroke="rgb(254,254,254)" stroke-width="1" opacity="1" d="M 48.5 42 L 51 43.5 L 49.5 46 L 48 45.5 L 50 45 Q 51.1 42.3 48.5 43 L 48.5 42 Z " /><path fill="rgb(254,254,254)" stroke="rgb(254,254,254)" stroke-width="1" opacity="1" d="M 77.5 44 L 78.5 46 Q 75.7 46.7 77.5 44 Z " /><path fill="rgb(254,254,254)" stroke="rgb(254,254,254)" stroke-width="1" opacity="1" d="M 81.5 45 L 80.5 47 L 81.5 45 Z " /><path fill="rgb(254,254,254)" stroke="rgb(254,254,254)" stroke-width="1" opacity="1" d="M 42.5 53 L 44 55.5 L 43 55.5 L 42.5 53 Z " /><path fill="rgb(254,254,254)" stroke="rgb(254,254,254)" stroke-width="1" opacity="1" d="M 40.5 54 L 42 57.5 L 41 57.5 L 40.5 56 L 40 61.5 Q 42.3 62.8 39.5 64 L 38 63.5 L 38 56 Q 40.8 57 40.5 54 Z " /><path fill="rgb(254,254,254)" stroke="rgb(254,254,254)" stroke-width="1" opacity="1" d="M 65.5 56 L 64.5 58 L 65.5 56 Z " /><path fill="rgb(254,254,254)" stroke="rgb(254,254,254)" stroke-width="1" opacity="1" d="M 100.5 56 L 101 59.5 L 100 59.5 L 100.5 56 Z " /><path fill="rgb(254,254,254)" stroke="rgb(254,254,254)" stroke-width="1" opacity="1" d="M 102 56 Q 105.1 55.3 104.5 58 L 111.5 58 L 111.5 59 L 102.5 59 L 102 56 Z " /><path fill="rgb(254,254,254)" stroke="rgb(254,254,254)" stroke-width="1" opacity="1" d="M 58.5 58 L 58 59.5 L 56.5 62 L 55 59.5 Q 56.8 61.1 58.5 58 Z " /><path fill="rgb(254,254,254)" stroke="rgb(254,254,254)" stroke-width="1" opacity="1" d="M 66.5 58 L 68 64 L 64 63.5 L 66 60 L 64 59.5 L 66.5 58 Z " /><path fill="rgb(254,254,254)" stroke="rgb(254,254,254)" stroke-width="1" opacity="1" d="M 71.5 60 L 72 62.5 L 71.5 64 L 70 61.5 L 71.5 60 Z " /><path fill="rgb(254,254,254)" stroke="rgb(254,254,254)" stroke-width="1" opacity="1" d="M 90.5 60 L 90 61.5 L 89.5 63 L 89 61.5 L 90.5 60 Z " /><path fill="rgb(254,254,254)" stroke="rgb(254,254,254)" stroke-width="1" opacity="1" d="M 101.5 61 L 102 63.5 L 101 63.5 L 101.5 61 Z " /><path fill="rgb(254,254,254)" stroke="rgb(254,254,254)" stroke-width="1" opacity="1" d="M 90.5 64 L 91.5 66 L 90.5 64 Z " /><path fill="rgb(254,254,254)" stroke="rgb(254,254,254)" stroke-width="1" opacity="1" d="M 103.5 64 L 104 79.5 L 103 79.5 L 103.5 64 Z " /><path fill="rgb(254,254,254)" stroke="rgb(254,254,254)" stroke-width="1" opacity="1" d="M 72.5 66 L 73 69.5 L 72 69.5 L 72.5 66 Z " /><path fill="rgb(254,254,254)" stroke="rgb(254,254,254)" stroke-width="1" opacity="1" d="M 88 66 L 90 66.5 L 89 68.5 L 89.5 70 L 88 70 L 88 66 Z " /><path fill="rgb(254,254,254)" stroke="rgb(254,254,254)" stroke-width="1" opacity="1" d="M 91.5 70 L 90.5 72 L 91.5 70 Z " /><path fill="rgb(254,254,254)" stroke="rgb(254,254,254)" stroke-width="1" opacity="1" d="M 32 72 L 34 72.5 L 34 80 L 32 79.5 L 32 72 Z " /><path fill="rgb(254,254,254)" stroke="rgb(254,254,254)" stroke-width="1" opacity="1" d="M 37 72 L 39 72.5 L 39 80 L 37 79.5 L 37 72 Z " /><path fill="rgb(254,254,254)" stroke="rgb(254,254,254)" stroke-width="1" opacity="1" d="M 68.5 72 L 70.5 73 L 72 72.5 L 71 75 L 69 75.5 L 69.5 77 L 68 75.5 L 69.5 73 L 68.5 72 Z " /><path fill="rgb(254,254,254)" stroke="rgb(254,254,254)" stroke-width="1" opacity="1" d="M 57.5 73 L 57 74.5 L 56.5 76 L 56 74.5 L 57.5 73 Z " /><path fill="rgb(254,254,254)" stroke="rgb(254,254,254)" stroke-width="1" opacity="1" d="M 90.5 74 L 91 75.5 L 87 78.5 Q 86.3 76.3 88.5 77 L 90.5 74 Z " /><path fill="rgb(254,254,254)" stroke="rgb(254,254,254)" stroke-width="1" opacity="1" d="M 61.5 75 L 60.5 77 L 61.5 75 Z " /><path fill="rgb(254,254,254)" stroke="rgb(254,254,254)" stroke-width="1" opacity="1" d="M 62 78 L 66 79.5 L 64.5 80 L 62 79.5 L 62 78 Z " /><path fill="rgb(254,254,254)" stroke="rgb(254,254,254)" stroke-width="1" opacity="1" d="M 87.5 80 L 88.5 82 L 86 81.5 L 87.5 80 Z " /><path fill="rgb(254,254,254)" stroke="rgb(254,254,254)" stroke-width="1" opacity="1" d="M 40.5 81 L 43 81.5 L 41 84.5 L 43 84.5 L 40 86.5 L 40 84.5 L 40.5 81 Z " /><path fill="rgb(254,254,254)" stroke="rgb(254,254,254)" stroke-width="1" opacity="1" d="M 85 83 L 87 83.5 L 86.5 85 L 88.5 84 L 88 85.5 L 87.5 87 L 85 86.5 L 85 83 Z " /><path fill="rgb(254,254,254)" stroke="rgb(254,254,254)" stroke-width="1" opacity="1" d="M 47.5 86 L 46.5 88 L 44 87.5 L 47.5 86 Z " /><path fill="rgb(254,254,254)" stroke="rgb(254,254,254)" stroke-width="1" opacity="1" d="M 80 88 L 88 88 L 88 93 L 80.5 93 L 80 91 L 78.5 91 L 78.5 90 Q 81.1 90.7 80 88 Z " /><path fill="rgb(254,254,254)" stroke="rgb(254,254,254)" stroke-width="1" opacity="1" d="M 102.5 88 L 104 91.5 L 102 90.5 L 102.5 88 Z " /><path fill="rgb(254,254,254)" stroke="rgb(254,254,254)" stroke-width="1" opacity="1" d="M 61.5 92 L 62 94 L 64 94.5 L 62.5 95 L 61.5 92 Z " /><path fill="rgb(254,254,254)" stroke="rgb(254,254,254)" stroke-width="1" opacity="1" d="M 78.5 92 L 79 93.5 L 73.5 96 L 73.5 95 L 75 94.5 L 74.5 93 L 78.5 92 Z " /><path fill="rgb(254,254,254)" stroke="rgb(254,254,254)" stroke-width="1" opacity="1" d="M 66.5 93 L 69 94.5 L 66 95 L 66.5 93 Z " /><path fill="rgb(254,254,254)" stroke="rgb(254,254,254)" stroke-width="1" opacity="1" d="M 101.5 93 L 102 94.5 L 99.5 96 L 99.5 95 Q 102 95.7 101.5 93 Z " /><path fill="rgb(254,254,254)" stroke="rgb(254,254,254)" stroke-width="1" opacity="1" d="M 53.5 95 L 56 95.5 L 53.5 96 L 53.5 95 Z " /><path fill="rgb(254,254,254)" stroke="rgb(254,254,254)" stroke-width="1" opacity="1" d="M 88.5 95 L 92 95.5 L 88.5 96 L 88.5 95 Z " /><path fill="rgb(254,254,254)" stroke="rgb(254,254,254)" stroke-width="1" opacity="1" d="M 32 144 Q 35 142.8 34 146.5 L 35 146.5 L 35.5 144 L 36 146.5 L 34.5 148 L 32 147.5 L 32 144 Z " /><path fill="rgb(254,254,254)" stroke="rgb(254,254,254)" stroke-width="1" opacity="1" d="M 39 144 L 45 144 L 45 148 Q 40.4 149.3 39 146.5 L 39 144 Z " /><path fill="rgb(254,254,254)" stroke="rgb(254,254,254)" stroke-width="1" opacity="1" d="M 49 144 Q 51.7 142.9 51 145.5 L 54 147 L 55.5 144 L 56 148 L 50.5 148 L 50 146.5 L 49 144 Z " /><path fill="rgb(254,254,254)" stroke="rgb(254,254,254)" stroke-width="1" opacity="1" d="M 59 144 L 65 144 L 65 148 L 59 148 L 59 144 Z " /><path fill="rgb(254,254,254)" stroke="rgb(254,254,254)" stroke-width="1" opacity="1" d="M 69 144 Q 72 142.8 71 146.5 L 69 145.5 L 69 144 Z " /><path fill="rgb(254,254,254)" stroke="rgb(254,254,254)" stroke-width="1" opacity="1" d="M 72 144 L 91.5 144 L 92 145.5 L 91 148 Q 88 149.3 89 145.5 L 86.5 147 L 82 148 L 80.5 145 L 80 148 L 72 148 L 72 144 Z " /><path fill="rgb(254,254,254)" stroke="rgb(254,254,254)" stroke-width="1" opacity="1" d="M 94.5 144 L 96 147.5 L 94 146.5 L 94.5 144 Z " /><path fill="rgb(254,254,254)" stroke="rgb(254,254,254)" stroke-width="1" opacity="1" d="M 107.5 144 L 109 148 Q 105.2 149.2 107.5 144 Z " /><path fill="rgb(254,254,254)" stroke="rgb(254,254,254)" stroke-width="1" opacity="1" d="M 111.5 144 L 112 147.5 L 111 147.5 L 111.5 144 Z " /><path fill="rgb(254,254,254)" stroke="rgb(254,254,254)" stroke-width="1" opacity="1" d="M 118 144 L 125 144 L 125 148 L 118 148 L 118 144 Z " /><path fill="rgb(254,254,254)" stroke="rgb(254,254,254)" stroke-width="1" opacity="1" d="M 102.5 145 L 103 146.5 L 101 147.5 L 102.5 145 Z " /><path fill="rgb(255,255,255)" stroke="rgb(255,255,255)" stroke-width="1" opacity="1" d="M 0 0 L 151 0 L 151 148 L 125.5 148 L 124.5 144 L 109.5 144 L 107.5 144 Q 103 143 102 145.5 L 101.5 147 L 100 144 Q 94.8 141.9 96 146.5 L 95 146.5 L 94.5 144 L 72 144 L 71.5 148 L 71 144 L 69 144 Q 70.7 149.2 67 148 L 67 144 L 59 144 Q 60.9 149.6 56 148 L 55.5 144 L 54 147 L 51 145.5 Q 51.7 142.5 48 144 Q 49.9 149.6 45 148 L 45 144 L 35 144 L 33.5 148 L 34 146.5 Q 35 142.8 32 144 L 31.5 148 L 0 148 L 0 0 Z M 50 40 L 50 42 L 48 42 Q 47 45 50 44 L 50 45 Q 46 44 48 48 L 43 49 Q 40 48 41 52 L 43 51 Q 45 50 44 53 L 45 53 Q 44 50 47 51 L 45 54 L 42 53 L 40 53 Q 41 57 38 56 L 38 64 L 40 64 L 41 64 L 40 66 Q 39 70 41 72 L 37 72 L 37 80 L 40 80 L 41 87 Q 43 86 41 85 L 44 80 L 46 85 L 44 83 Q 41 82 42 85 L 45 87 L 43 87 L 43 88 L 48 88 L 48 94 L 54 96 L 58 96 L 57 95 L 57 94 L 59 95 L 64 95 L 63 94 L 63 93 Q 67 92 66 95 L 70 94 Q 72 93 71 96 Q 77 97 81 93 L 89 93 L 89 91 L 93 92 L 95 92 L 95 94 L 96 95 L 92 95 Q 93 92 91 93 L 89 96 L 102 96 L 104 95 L 103 94 L 104 92 Q 106 87 102 88 L 100 89 L 101 60 L 101 64 L 102 64 L 102 59 L 112 59 L 112 56 L 110 56 Q 109 53 112 54 L 112 52 L 110 44 Q 114 42 111 40 L 106 40 L 104 42 L 96 43 L 107 43 L 107 44 L 89 43 L 87 44 L 89 42 L 96 42 L 89 41 L 87 41 L 87 42 L 82 42 L 82 45 L 77 41 L 72 40 L 65 42 L 70 43 L 70 44 Q 61 44 56 40 L 50 40 Z M 82 40 L 80 43 L 83 41 L 82 40 Z M 62 41 L 62 42 L 64 42 L 62 41 Z M 104 64 L 103 80 L 104 80 L 104 64 Z M 32 72 L 32 80 L 34 80 L 34 73 L 32 72 Z " /><path fill="rgb(255,255,255)" stroke="rgb(255,255,255)" stroke-width="1" opacity="1" d="M 74.5 42 L 77 43.5 L 76.5 48 Q 75.4 45.3 72 46 L 72.5 44 L 76 45 Q 77.1 42.3 74.5 43 L 74.5 42 Z " /><path fill="rgb(255,255,255)" stroke="rgb(255,255,255)" stroke-width="1" opacity="1" d="M 56.5 43 L 59 43.5 L 56.5 44 L 56.5 43 Z " /><path fill="rgb(255,255,255)" stroke="rgb(255,255,255)" stroke-width="1" opacity="1" d="M 52.5 45 L 56 45.5 L 52 46 L 51.5 48 L 51 46.5 L 52.5 45 Z " /><path fill="rgb(255,255,255)" stroke="rgb(255,255,255)" stroke-width="1" opacity="1" d="M 78 47 L 81 48.5 Q 79.5 51.5 78 48.5 L 78 47 Z " /><path fill="rgb(255,255,255)" stroke="rgb(255,255,255)" stroke-width="1" opacity="1" d="M 49.5 48 L 48.5 50 L 49.5 48 Z " /><path fill="rgb(255,255,255)" stroke="rgb(255,255,255)" stroke-width="1" opacity="1" d="M 85.5 50 L 86 52 Q 89 50.8 88 54.5 L 91 59.5 L 89 60.5 L 86.5 54 L 85.5 57 L 85 54.5 L 86 52.5 L 85.5 50 Z " /><path fill="rgb(255,255,255)" stroke="rgb(255,255,255)" stroke-width="1" opacity="1" d="M 61.5 55 L 67 55.5 L 63 58.5 L 63 60 Q 66.7 58.5 66 61.5 L 64.5 64 L 72 64 L 72 72 L 68 72.5 L 70 73.5 L 65.5 77 L 63 76 Q 64 79 61 78 Q 62.1 75.3 59.5 76 L 56.5 74 L 55.5 76 Q 58.8 74.9 58 77.5 L 58.5 79 L 54 75.5 Q 56.7 74.4 56 71 L 54 71.5 L 54.5 73 Q 52.3 73.8 53 71.5 Q 50.8 70.3 52 65.5 L 52.5 63 L 55 63.5 L 54.5 65 Q 57.1 65.8 56 62.5 Q 57.2 59.3 61 60 L 63 56.5 L 61.5 55 Z M 61 61 L 61 64 L 63 63 Q 64 60 61 61 Z M 57 62 Q 56 65 59 64 Q 60 61 57 62 Z M 55 66 L 53 69 Q 55 72 56 69 L 55 66 Z M 57 72 L 58 74 L 60 73 L 57 72 Z M 61 72 L 61 76 L 63 75 Q 64 71 61 72 Z M 67 72 L 64 75 L 67 75 L 67 72 Z " /><path fill="rgb(255,255,255)" stroke="rgb(255,255,255)" stroke-width="1" opacity="1" d="M 58.5 57 L 60 57.5 L 56.5 60 L 56 58 L 58.5 57 Z " /><path fill="rgb(255,255,255)" stroke="rgb(255,255,255)" stroke-width="1" opacity="1" d="M 70 58 Q 73 57 72 60 Q 69 61 70 58 Z " /><path fill="rgb(255,255,255)" stroke="rgb(255,255,255)" stroke-width="1" opacity="1" d="M 68 61 L 71 62.5 L 68 63 L 68 61 Z " /><path fill="rgb(255,255,255)" stroke="rgb(255,255,255)" stroke-width="1" opacity="1" d="M 73.5 61 L 74 63 L 76 63.5 L 74.5 64 L 73.5 61 Z " /><path fill="rgb(255,255,255)" stroke="rgb(255,255,255)" stroke-width="1" opacity="1" d="M 91.5 66 L 92 69.5 L 91 69.5 L 91.5 66 Z " /><path fill="rgb(255,255,255)" stroke="rgb(255,255,255)" stroke-width="1" opacity="1" d="M 89.5 70 L 91 73.5 L 90 73.5 L 89.5 70 Z " /><path fill="rgb(255,255,255)" stroke="rgb(255,255,255)" stroke-width="1" opacity="1" d="M 73.5 72 L 75 74.5 L 69.5 78 L 71 75.5 L 71.5 73 L 72 75 Q 74.7 76.1 74 73.5 L 73.5 72 Z " /><path fill="rgb(255,255,255)" stroke="rgb(255,255,255)" stroke-width="1" opacity="1" d="M 41.5 76 L 42 78.5 L 41 78.5 L 41.5 76 Z " /><path fill="rgb(255,255,255)" stroke="rgb(255,255,255)" stroke-width="1" opacity="1" d="M 86.5 76 L 87 79.5 L 86 79.5 L 86.5 76 Z " /><path fill="rgb(255,255,255)" stroke="rgb(255,255,255)" stroke-width="1" opacity="1" d="M 90.5 76 L 90 77.5 L 88.5 81 L 88 78.5 L 90.5 76 Z " /><path fill="rgb(255,255,255)" stroke="rgb(255,255,255)" stroke-width="1" opacity="1" d="M 63.5 79 L 62.5 81 L 60 80.5 L 63.5 79 Z " /><path fill="rgb(255,255,255)" stroke="rgb(255,255,255)" stroke-width="1" opacity="1" d="M 84.5 80 L 89 83.5 L 87 84.5 Q 87.8 81.5 84 83 L 84.5 80 Z " /><path fill="rgb(255,255,255)" stroke="rgb(255,255,255)" stroke-width="1" opacity="1" d="M 82.5 83 L 83 85 L 81 84.5 L 82.5 83 Z " /><path fill="rgb(255,255,255)" stroke="rgb(255,255,255)" stroke-width="1" opacity="1" d="M 48.5 86 L 50.5 89 L 48.5 86 Z " /><path fill="rgb(255,255,255)" stroke="rgb(255,255,255)" stroke-width="1" opacity="1" d="M 79.5 86 Q 81.8 85.3 81 87.5 Q 78.5 85.7 76 90.5 L 79 91.5 L 75.5 93 L 72.5 92 L 72.5 93 L 74 93.5 L 72.5 94 L 67 92.5 L 73.5 90 L 74.5 91 L 79.5 86 Z " /><path fill="rgb(255,255,255)" stroke="rgb(255,255,255)" stroke-width="1" opacity="1" d="M 86.5 86 L 89 86.5 Q 89.7 89.5 86 88 L 86.5 86 Z " /><path fill="rgb(255,255,255)" stroke="rgb(255,255,255)" stroke-width="1" opacity="1" d="M 53.5 90 L 56 90.5 L 53.5 91 L 53.5 90 Z " /><path fill="rgb(255,255,255)" stroke="rgb(255,255,255)" stroke-width="1" opacity="1" d="M 100.5 90 L 101 95 L 99 94.5 L 100.5 90 Z " /><path fill="rgb(255,255,255)" stroke="rgb(255,255,255)" stroke-width="1" opacity="1" d="M 56.5 92 L 61 92.5 L 56.5 93 L 56.5 92 Z " /><path fill="rgb(255,255,255)" stroke="rgb(255,255,255)" stroke-width="1" opacity="1" d="M 96.5 92 L 99 92.5 L 96.5 93 L 96.5 92 Z " /><path fill="rgb(255,255,255)" stroke="rgb(255,255,255)" stroke-width="1" opacity="1" d="M 80.5 145 L 82 148 Q 78.5 149.1 80.5 145 Z " /><path fill="rgb(198,236,229)" stroke="rgb(198,236,229)" stroke-width="1" opacity="1" d="M 83.5 44 L 83 45.5 L 82.5 47 L 82 45.5 L 83.5 44 Z " /><path fill="rgb(198,236,229)" stroke="rgb(198,236,229)" stroke-width="1" opacity="1" d="M 54.5 46 L 56 46.5 L 53.5 48 L 54.5 46 Z " /><path fill="rgb(198,236,229)" stroke="rgb(198,236,229)" stroke-width="1" opacity="1" d="M 72.5 46 L 75 47.5 L 73.5 47 L 72.5 46 Z " /><path fill="rgb(198,236,229)" stroke="rgb(198,236,229)" stroke-width="1" opacity="1" d="M 51.5 48 L 49.5 51 Q 47.3 50.3 48 52.5 L 44 55.5 L 49.5 49 L 51.5 48 Z " /><path fill="rgb(198,236,229)" stroke="rgb(198,236,229)" stroke-width="1" opacity="1" d="M 76.5 48 L 80 50.5 L 78.5 51 L 76.5 48 Z " /><path fill="rgb(198,236,229)" stroke="rgb(198,236,229)" stroke-width="1" opacity="1" d="M 85.5 48 L 88 51.5 L 85 49.5 L 85.5 48 Z " /><path fill="rgb(198,236,229)" stroke="rgb(198,236,229)" stroke-width="1" opacity="1" d="M 80.5 52 L 82.5 55 L 80.5 52 Z " /><path fill="rgb(198,236,229)" stroke="rgb(198,236,229)" stroke-width="1" opacity="1" d="M 88.5 53 L 91 57.5 L 90 57.5 L 88.5 53 Z " /><path fill="rgb(198,236,229)" stroke="rgb(198,236,229)" stroke-width="1" opacity="1" d="M 110.5 53 L 109.5 55 L 108 54.5 L 110.5 53 Z " /><path fill="rgb(198,236,229)" stroke="rgb(198,236,229)" stroke-width="1" opacity="1" d="M 61.5 54 L 67 54.5 L 61.5 55 L 61.5 54 Z " /><path fill="rgb(198,236,229)" stroke="rgb(198,236,229)" stroke-width="1" opacity="1" d="M 58.5 55 L 60 55.5 L 53 60.5 Q 49.8 63.8 51 71.5 L 52 73.5 L 51 73.5 L 50 64.5 L 56.5 56 L 58.5 55 Z " /><path fill="rgb(198,236,229)" stroke="rgb(198,236,229)" stroke-width="1" opacity="1" d="M 68.5 55 L 75 59.5 L 73 60 Q 74.1 57.3 71.5 58 L 68.5 55 Z " /><path fill="rgb(198,236,229)" stroke="rgb(198,236,229)" stroke-width="1" opacity="1" d="M 84.5 57 L 86 60.5 L 85 60.5 L 84.5 57 Z " /><path fill="rgb(198,236,229)" stroke="rgb(198,236,229)" stroke-width="1" opacity="1" d="M 75.5 61 L 77 63.5 L 76 63.5 L 75.5 61 Z " /><path fill="rgb(198,236,229)" stroke="rgb(198,236,229)" stroke-width="1" opacity="1" d="M 92.5 63 L 93 65.5 L 92 65.5 L 92.5 63 Z " /><path fill="rgb(198,236,229)" stroke="rgb(198,236,229)" stroke-width="1" opacity="1" d="M 86.5 64 L 87 72.5 L 86 72.5 L 86.5 64 Z " /><path fill="rgb(198,236,229)" stroke="rgb(198,236,229)" stroke-width="1" opacity="1" d="M 92.5 70 L 93 72.5 L 92 72.5 L 92.5 70 Z " /><path fill="rgb(198,236,229)" stroke="rgb(198,236,229)" stroke-width="1" opacity="1" d="M 76.5 72 L 77 73.5 L 71.5 80 Q 68.2 83.2 60.5 82 L 60.5 81 L 67.5 81 L 75 75.5 L 76.5 72 Z " /><path fill="rgb(198,236,229)" stroke="rgb(198,236,229)" stroke-width="1" opacity="1" d="M 52.5 75 L 59 80.5 L 57.5 80 L 52.5 75 Z " /><path fill="rgb(198,236,229)" stroke="rgb(198,236,229)" stroke-width="1" opacity="1" d="M 85.5 75 L 86 77.5 L 84 78.5 L 85.5 75 Z " /><path fill="rgb(198,236,229)" stroke="rgb(198,236,229)" stroke-width="1" opacity="1" d="M 42.5 76 L 44 78.5 L 42 77.5 L 42.5 76 Z " /><path fill="rgb(198,236,229)" stroke="rgb(198,236,229)" stroke-width="1" opacity="1" d="M 44.5 80 L 50 86.5 L 45 82.5 L 44.5 80 Z " /><path fill="rgb(198,236,229)" stroke="rgb(198,236,229)" stroke-width="1" opacity="1" d="M 83.5 80 L 83 81.5 L 78.5 87 L 81 83.5 L 83.5 80 Z " /><path fill="rgb(198,236,229)" stroke="rgb(198,236,229)" stroke-width="1" opacity="1" d="M 89.5 81 L 90 91 L 94 91.5 L 90.5 92 L 89 90.5 L 89.5 81 Z " /><path fill="rgb(198,236,229)" stroke="rgb(198,236,229)" stroke-width="1" opacity="1" d="M 51.5 87 L 59 90.5 L 56.5 91 Q 51.9 90.3 51.5 87 Z " /><path fill="rgb(198,236,229)" stroke="rgb(198,236,229)" stroke-width="1" opacity="1" d="M 76.5 87 L 74.5 90 L 72 89.5 L 76.5 87 Z " /><path fill="rgb(198,236,229)" stroke="rgb(198,236,229)" stroke-width="1" opacity="1" d="M 98.5 90 L 97.5 92 L 96 91.5 L 98.5 90 Z " /><path fill="rgb(198,236,229)" stroke="rgb(198,236,229)" stroke-width="1" opacity="1" d="M 60.5 91 L 67 91.5 L 60.5 92 L 60.5 91 Z " /><path fill="rgb(239,253,251)" stroke="rgb(239,253,251)" stroke-width="1" opacity="1" d="M 56 41 L 60 42.5 L 56 43 L 56 41 Z " /><path fill="rgb(239,253,251)" stroke="rgb(239,253,251)" stroke-width="1" opacity="1" d="M 51 42 L 54 42.5 L 51 44 L 51 42 Z " /><path fill="rgb(239,253,251)" stroke="rgb(239,253,251)" stroke-width="1" opacity="1" d="M 70.5 42 L 74 42.5 Q 72.8 45.3 71.5 43 L 70.5 42 Z " /><path fill="rgb(239,253,251)" stroke="rgb(239,253,251)" stroke-width="1" opacity="1" d="M 60.5 44 Q 68.7 42.3 72 45.5 L 70.5 46 L 69.5 45 L 60.5 45 L 60.5 44 Z " /><path fill="rgb(239,253,251)" stroke="rgb(239,253,251)" stroke-width="1" opacity="1" d="M 79 44 L 81 44.5 L 79 45.5 L 79 44 Z " /><path fill="rgb(239,253,251)" stroke="rgb(239,253,251)" stroke-width="1" opacity="1" d="M 84.5 44 L 104 44.5 L 84.5 45 L 84.5 44 Z " /><path fill="rgb(239,253,251)" stroke="rgb(239,253,251)" stroke-width="1" opacity="1" d="M 105.5 44 L 110.5 45 L 112 44.5 L 111 47.5 L 111 49.5 L 110.5 53 L 110 45 L 105.5 45 L 105.5 44 Z " /><path fill="rgb(239,253,251)" stroke="rgb(239,253,251)" stroke-width="1" opacity="1" d="M 53.5 46 L 52.5 48 L 53.5 46 Z " /><path fill="rgb(239,253,251)" stroke="rgb(239,253,251)" stroke-width="1" opacity="1" d="M 74.5 46 L 75.5 48 L 74.5 46 Z " /><path fill="rgb(239,253,251)" stroke="rgb(239,253,251)" stroke-width="1" opacity="1" d="M 82 47 L 85 48.5 L 82 49 L 82 47 Z " /><path fill="rgb(239,253,251)" stroke="rgb(239,253,251)" stroke-width="1" opacity="1" d="M 43.5 48 L 44 49.5 L 42 50.5 L 43.5 48 Z " /><path fill="rgb(239,253,251)" stroke="rgb(239,253,251)" stroke-width="1" opacity="1" d="M 77.5 48 L 78.5 50 L 77.5 48 Z " /><path fill="rgb(239,253,251)" stroke="rgb(239,253,251)" stroke-width="1" opacity="1" d="M 80.5 51 Q 84.3 49.8 83 53.5 L 86 58.5 L 85 58.5 L 80.5 51 Z " /><path fill="rgb(239,253,251)" stroke="rgb(239,253,251)" stroke-width="1" opacity="1" d="M 45.5 53 L 44.5 55 L 45.5 53 Z " /><path fill="rgb(239,253,251)" stroke="rgb(239,253,251)" stroke-width="1" opacity="1" d="M 99.5 55 L 100 63.5 L 99 63.5 L 99.5 55 Z " /><path fill="rgb(239,253,251)" stroke="rgb(239,253,251)" stroke-width="1" opacity="1" d="M 103.5 55 L 108 55.5 L 103.5 56 L 103.5 55 Z " /><path fill="rgb(239,253,251)" stroke="rgb(239,253,251)" stroke-width="1" opacity="1" d="M 43.5 56 L 43 57.5 L 42.5 59 L 42 57.5 L 43.5 56 Z " /><path fill="rgb(239,253,251)" stroke="rgb(239,253,251)" stroke-width="1" opacity="1" d="M 58.5 56 L 57.5 58 L 54 60.5 L 52.5 63 L 53 61.5 L 56.5 57 L 58.5 56 Z " /><path fill="rgb(239,253,251)" stroke="rgb(239,253,251)" stroke-width="1" opacity="1" d="M 69.5 56 L 70.5 58 Q 67.7 58.7 69.5 56 Z " /><path fill="rgb(239,253,251)" stroke="rgb(239,253,251)" stroke-width="1" opacity="1" d="M 88.5 59 L 89 63.5 L 88 63.5 L 88.5 59 Z " /><path fill="rgb(239,253,251)" stroke="rgb(239,253,251)" stroke-width="1" opacity="1" d="M 86.5 60 L 87 63.5 L 86 63.5 L 86.5 60 Z " /><path fill="rgb(239,253,251)" stroke="rgb(239,253,251)" stroke-width="1" opacity="1" d="M 72.5 62 L 73.5 64 Q 70.7 64.7 72.5 62 Z " /><path fill="rgb(239,253,251)" stroke="rgb(239,253,251)" stroke-width="1" opacity="1" d="M 51.5 64 L 52 71.5 L 51 71.5 L 51.5 64 Z " /><path fill="rgb(239,253,251)" stroke="rgb(239,253,251)" stroke-width="1" opacity="1" d="M 87.5 66 L 88 69.5 L 87 69.5 L 87.5 66 Z " /><path fill="rgb(239,253,251)" stroke="rgb(239,253,251)" stroke-width="1" opacity="1" d="M 92.5 66 L 93 69.5 L 92 69.5 L 92.5 66 Z " /><path fill="rgb(239,253,251)" stroke="rgb(239,253,251)" stroke-width="1" opacity="1" d="M 89 67 Q 92 66 91 69 Q 88 70 89 67 Z " /><path fill="rgb(239,253,251)" stroke="rgb(239,253,251)" stroke-width="1" opacity="1" d="M 55.5 71 L 56 73.5 L 55 73.5 L 55.5 71 Z " /><path fill="rgb(239,253,251)" stroke="rgb(239,253,251)" stroke-width="1" opacity="1" d="M 87.5 72 L 90 73.5 L 88.5 77 L 87.5 73 L 86.5 76 L 86 73.5 L 87.5 72 Z " /><path fill="rgb(239,253,251)" stroke="rgb(239,253,251)" stroke-width="1" opacity="1" d="M 52.5 73 L 56.5 78 L 58 78.5 L 56.5 79 L 52 74.5 L 52.5 73 Z " /><path fill="rgb(239,253,251)" stroke="rgb(239,253,251)" stroke-width="1" opacity="1" d="M 74.5 75 L 72.5 78 L 69.5 80 L 71.5 77 L 74.5 75 Z " /><path fill="rgb(239,253,251)" stroke="rgb(239,253,251)" stroke-width="1" opacity="1" d="M 40.5 78 L 42 81.5 L 41 81.5 L 40.5 78 Z " /><path fill="rgb(239,253,251)" stroke="rgb(239,253,251)" stroke-width="1" opacity="1" d="M 42.5 78 L 43.5 80 L 42.5 78 Z " /><path fill="rgb(239,253,251)" stroke="rgb(239,253,251)" stroke-width="1" opacity="1" d="M 85.5 78 L 84.5 80 L 85.5 78 Z " /><path fill="rgb(239,253,251)" stroke="rgb(239,253,251)" stroke-width="1" opacity="1" d="M 45.5 83 L 47.5 86 L 45.5 83 Z " /><path fill="rgb(239,253,251)" stroke="rgb(239,253,251)" stroke-width="1" opacity="1" d="M 77.5 87 L 75.5 90 L 77.5 87 Z " /><path fill="rgb(239,253,251)" stroke="rgb(239,253,251)" stroke-width="1" opacity="1" d="M 99.5 88 L 100 90.5 L 98 91.5 L 99.5 88 Z " /><path fill="rgb(239,253,251)" stroke="rgb(239,253,251)" stroke-width="1" opacity="1" d="M 51.5 92 L 54 93.5 L 51 94 L 51.5 92 Z " /><path fill="rgb(239,253,251)" stroke="rgb(239,253,251)" stroke-width="1" opacity="1" d="M 56.5 93 Q 61 92 62 94.5 L 58.5 95 L 56.5 93 Z " /><path fill="rgb(239,253,251)" stroke="rgb(239,253,251)" stroke-width="1" opacity="1" d="M 68.5 93 Q 72.9 91.5 72 94.5 L 70.5 94 Q 67.5 94.5 68.5 93 Z " /><path fill="rgb(36,182,151)" stroke="rgb(36,182,151)" stroke-width="1" opacity="1" d="M 60.5 45 L 71.5 46 L 80 51 L 84 56.5 L 86 62.5 L 86 64.5 Q 87.8 70.8 85 72.5 L 86 74.5 Q 83.6 82.6 77.5 87 L 73.5 89 L 72 88.5 Q 72.8 91.1 69.5 90 L 68.5 91 L 59.5 91 L 56 90 L 55.5 88 L 53.5 88 L 46 82.5 L 42 73.5 L 42.5 72 L 41 71.5 L 41 64 L 43 63.5 L 42 61.5 L 48 51 L 58.5 46 L 60.5 47 L 60.5 45 Z M 62 54 L 57 56 L 50 65 Q 49 72 52 76 L 61 82 Q 68 83 72 80 L 76 76 L 78 69 L 77 63 L 75 60 Q 71 54 62 54 Z " /><path fill="rgb(36,182,151)" stroke="rgb(36,182,151)" stroke-width="1" opacity="1" d="M 83 45 L 108.5 45 L 110 46.5 L 109.5 53 L 109 46 L 84 46.5 L 84.5 48 L 83 45 Z " /><path fill="rgb(36,182,151)" stroke="rgb(36,182,151)" stroke-width="1" opacity="1" d="M 86.5 49 L 87.5 51 L 86.5 49 Z " /><path fill="rgb(36,182,151)" stroke="rgb(36,182,151)" stroke-width="1" opacity="1" d="M 88.5 52 L 89.5 54 L 88.5 52 Z " /><path fill="rgb(36,182,151)" stroke="rgb(36,182,151)" stroke-width="1" opacity="1" d="M 98.5 54 L 99 89.5 L 96.5 91 L 96.5 90 L 98 89.5 L 98.5 54 Z " /><path fill="rgb(36,182,151)" stroke="rgb(36,182,151)" stroke-width="1" opacity="1" d="M 92.5 73 L 93 75.5 L 92 75.5 L 92.5 73 Z " /><path fill="rgb(36,182,151)" stroke="rgb(36,182,151)" stroke-width="1" opacity="1" d="M 91.5 90 L 95 90.5 L 91.5 91 L 91.5 90 Z " /><path fill="rgb(12,124,100)" stroke="rgb(12,124,100)" stroke-width="1" opacity="1" d="M 84.5 46 L 108.5 46 Q 109.8 46.3 109 52.5 L 109.5 54 L 98 54 L 98 89.5 L 96.5 90 L 94.5 90 L 90.5 91 L 90 81.5 L 93 75.5 L 93 61.5 Q 90.3 51.4 84.5 46 Z " /></svg>